<?xml version="1.0" standalone="no"?>
<!DOCTYPE svg PUBLIC "-//W3C//DTD SVG 20010904//EN"
 "http://www.w3.org/TR/2001/REC-SVG-20010904/DTD/svg10.dtd">
<svg version="1.0" xmlns="http://www.w3.org/2000/svg"
 width="512.000000pt" height="512.000000pt" viewBox="0 0 512.000000 512.000000"
 preserveAspectRatio="xMidYMid meet">
<metadata>
Created by potrace 1.11, written by Peter Selinger 2001-2013
</metadata>
<g transform="translate(0.000000,512.000000) scale(0.100000,-0.100000)"
fill="#000000" stroke="none">
<path d="M0 2600 l0 -2521 33 6 c17 3 104 12 192 20 794 75 1409 215 2115 481
352 132 822 341 815 362 -12 34 35 58 62 31 7 -7 37 3 102 36 l92 46 -78 112
c-43 62 -110 159 -150 217 -40 57 -73 112 -73 121 0 9 8 23 18 31 17 15 598
353 727 424 39 21 78 35 86 32 9 -3 29 -31 45 -62 16 -31 35 -56 43 -56 8 0
11 -7 8 -20 -3 -14 23 -80 75 -188 45 -92 83 -169 85 -172 6 -6 55 22 516 297
l407 243 0 1540 0 1540 -2560 0 -2560 0 0 -2520z m3914 425 c27 -28 -10 -69
-40 -44 -17 14 -18 31 -2 47 16 16 23 15 42 -3z m280 -198 c28 -21 18 -69 -18
-82 -24 -8 -31 -6 -47 13 -38 48 16 105 65 69z m396 -158 c0 -24 -27 -36 -48
-22 -23 14 -25 29 -7 47 21 20 55 5 55 -25z m-256 -241 c27 -39 -18 -80 -52
-46 -17 17 -15 45 6 57 24 15 29 14 46 -11z m-529 -28 c0 -22 -29 -18 -33 3
-3 14 1 18 15 15 10 -2 18 -10 18 -18z m-500 -70 c0 -22 -29 -18 -33 3 -3 14
1 18 15 15 10 -2 18 -10 18 -18z m865 -80 c0 -11 -3 -20 -7 -20 -125 -7 -193
-13 -260 -26 -46 -9 -90 -14 -98 -10 -22 8 -18 34 5 41 55 17 175 33 263 34
91 1 97 0 97 -19z m-515 -80 c11 -17 -5 -50 -24 -50 -24 0 -45 25 -37 45 6 17
51 21 61 5z m1180 -30 c0 -8 -8 -16 -17 -18 -13 -2 -18 3 -18 18 0 15 5 20 18
18 9 -2 17 -10 17 -18z m-1355 -70 c0 -5 -26 -23 -57 -41 -32 -18 -80 -48
-108 -66 -59 -39 -78 -42 -73 -10 4 31 205 152 224 136 8 -6 14 -15 14 -19z
m885 -65 c0 -35 -31 -47 -51 -20 -18 25 0 57 29 53 17 -2 22 -10 22 -33z
m-1212 -136 c15 -24 1 -49 -27 -49 -29 0 -44 33 -25 56 15 18 38 15 52 -7z
m973 -30 c9 -15 -11 -33 -30 -26 -9 4 -13 13 -10 22 7 17 30 20 40 4z m-808
-72 c2 -12 -3 -17 -17 -17 -12 0 -21 6 -21 13 0 31 32 34 38 4z m-302 -32 c4
-8 -18 -44 -53 -87 -65 -81 -99 -132 -132 -196 -21 -41 -43 -53 -56 -32 -14
22 86 184 170 278 49 55 62 61 71 37z m1272 -88 c2 -12 -3 -17 -17 -17 -15 0
-21 6 -21 21 0 25 33 22 38 -4z m-1790 -216 c8 -4 12 -19 10 -32 -2 -18 -9
-24 -28 -24 -28 0 -39 27 -20 50 14 17 20 18 38 6z m497 -401 c0 -8 -8 -16
-17 -18 -13 -2 -18 3 -18 18 0 15 5 20 18 18 9 -2 17 -10 17 -18z m-415 -178
c0 -8 -19 -37 -57 -89 l-24 -33 -60 42 c-55 39 -71 58 -51 58 5 0 27 -13 48
-28 21 -15 44 -31 50 -35 7 -4 25 13 44 43 29 45 50 63 50 42z"/>
<path d="M4490 1462 c-38 -12 -58 -63 -35 -88 37 -39 88 -32 99 12 11 42 -28
88 -64 76z"/>
<path d="M4648 1079 c-39 -20 -54 -40 -62 -80 -7 -36 -17 -59 -27 -59 -5 0 -9
-6 -9 -13 0 -6 -25 -40 -56 -74 l-57 -62 -31 23 c-72 54 -171 61 -255 20 -78
-39 -102 -81 -114 -202 -11 -107 -10 -103 -29 -106 -7 -1 -24 -8 -37 -15 -21
-12 -35 -11 -111 4 -114 24 -155 24 -198 4 -48 -24 -95 -91 -86 -124 7 -24 56
-56 195 -125 73 -37 110 -61 121 -81 21 -37 169 -133 237 -155 47 -15 62 -16
113 -5 186 38 497 249 527 357 13 46 14 243 2 295 -5 21 -4 43 1 53 18 31 21
61 20 199 0 93 -4 143 -12 152 -18 21 -88 18 -132 -6z"/>
</g>
</svg>
