<svg xmlns="http://www.w3.org/2000/svg" xmlns:xlink="http://www.w3.org/1999/xlink" viewBox="0 0 1920 706">
  <defs>
    <style>
      .cls-1 {
        fill: #480000;
        stroke: #707070;
      }

      .cls-10, .cls-11, .cls-13, .cls-15, .cls-16, .cls-18, .cls-2, .cls-20, .cls-21, .cls-23, .cls-25, .cls-52 {
        fill: rgba(0,0,0,0);
      }

      .cls-3 {
        clip-path: url(#clip-nfi-test);
      }

      .cls-4 {
        clip-path: url(#clip-path);
      }

      .cls-5 {
        fill: url(#linear-gradient);
      }

      .cls-6 {
        fill: url(#linear-gradient-2);
      }

      .cls-7 {
        fill: url(#linear-gradient-3);
      }

      .cls-8 {
        fill: url(#linear-gradient-4);
      }

      .cls-9 {
        fill: #c9f5f2;
      }

      .cls-10, .cls-11, .cls-15, .cls-16 {
        stroke: #c9f5f2;
      }

      .cls-10, .cls-11, .cls-13, .cls-15, .cls-16, .cls-18, .cls-19, .cls-20, .cls-21, .cls-23, .cls-25, .cls-52 {
        stroke-miterlimit: 10;
      }

      .cls-10, .cls-19, .cls-21, .cls-23, .cls-52 {
        stroke-width: 0.469px;
      }

      .cls-11 {
        stroke-width: 0.469px;
      }

      .cls-12 {
        fill: #00aea0;
      }

      .cls-13, .cls-21 {
        stroke: #00aea0;
      }

      .cls-13 {
        stroke-width: 0.469px;
      }

      .cls-14 {
        fill: #fff;
      }

      .cls-15 {
        stroke-width: 0.469px;
      }

      .cls-16 {
        stroke-width: 0.47px;
      }

      .cls-17 {
        fill: #00506b;
      }

      .cls-18 {
        stroke: #00506b;
      }

      .cls-18, .cls-25 {
        stroke-width: 0.938px;
      }

      .cls-19, .cls-22 {
        fill: #ff927c;
      }

      .cls-19, .cls-23 {
        stroke: #ff927c;
      }

      .cls-20 {
        stroke: #ef5c8a;
        stroke-width: 0.352px;
      }

      .cls-24 {
        fill: #002c51;
      }

      .cls-25 {
        stroke: #002c51;
      }

      .cls-26 {
        clip-path: url(#clip-path-2);
      }

      .cls-27, .cls-30 {
        fill: #53007a;
      }

      .cls-28, .cls-35 {
        fill: #6f0084;
      }

      .cls-29 {
        fill: #007585;
      }

      .cls-30, .cls-31, .cls-32, .cls-33, .cls-35, .cls-36, .cls-38, .cls-39, .cls-41, .cls-42, .cls-45, .cls-46, .cls-48 {
        opacity: 0.25;
      }

      .cls-31 {
        fill: url(#linear-gradient-5);
      }

      .cls-32 {
        fill: url(#linear-gradient-6);
      }

      .cls-33 {
        fill: url(#linear-gradient-7);
      }

      .cls-34 {
        fill: #00d6c6;
      }

      .cls-36 {
        fill: #a8009c;
      }

      .cls-37 {
        opacity: 0.2;
        fill: url(#linear-gradient-8);
      }

      .cls-38 {
        fill: url(#linear-gradient-9);
      }

      .cls-39 {
        fill: url(#linear-gradient-10);
      }

      .cls-40, .cls-43, .cls-44, .cls-47, .cls-49 {
        opacity: 0.5;
      }

      .cls-40 {
        fill: url(#linear-gradient-11);
      }

      .cls-41 {
        fill: url(#linear-gradient-12);
      }

      .cls-42 {
        fill: url(#linear-gradient-13);
      }

      .cls-43 {
        fill: url(#linear-gradient-14);
      }

      .cls-44 {
        fill: url(#linear-gradient-15);
      }

      .cls-45 {
        fill: url(#linear-gradient-16);
      }

      .cls-46 {
        fill: url(#linear-gradient-17);
      }

      .cls-47 {
        fill: url(#linear-gradient-18);
      }

      .cls-48 {
        fill: url(#linear-gradient-19);
      }

      .cls-49 {
        fill: url(#linear-gradient-20);
      }

      .cls-50 {
        fill: url(#linear-gradient-21);
      }

      .cls-51 {
        fill: url(#linear-gradient-22);
      }

      .cls-52 {
        stroke: #00d6c6;
      }
    </style>
    <clipPath id="clip-path">
      <rect id="Rectangle_1" data-name="Rectangle 1" class="cls-1" width="1920" height="1080"/>
    </clipPath>
    <linearGradient id="linear-gradient" y1="0.5" x2="1" y2="0.5" gradientUnits="objectBoundingBox">
      <stop offset="0" stop-color="#6f0084"/>
      <stop offset="0.1" stop-color="#59238a"/>
      <stop offset="0.28" stop-color="#335e93"/>
      <stop offset="0.43" stop-color="#178a9a"/>
      <stop offset="0.55" stop-color="#06a49e"/>
      <stop offset="0.62" stop-color="#00aea0"/>
    </linearGradient>
    <linearGradient id="linear-gradient-2" y1="0.5" x2="1" y2="0.5" gradientUnits="objectBoundingBox">
      <stop offset="0" stop-color="#6f0084"/>
      <stop offset="0.33" stop-color="#6f0084"/>
      <stop offset="0.5" stop-color="#6f0084" stop-opacity="0"/>
    </linearGradient>
    <linearGradient id="linear-gradient-3" x1="0.208" y1="-1.233" x2="0.71" y2="1.748" gradientUnits="objectBoundingBox">
      <stop offset="0" stop-color="#010758"/>
      <stop offset="0.6" stop-color="#010758" stop-opacity="0.2"/>
      <stop offset="1" stop-color="#010758" stop-opacity="0"/>
    </linearGradient>
    <linearGradient id="linear-gradient-4" y1="0.5" x2="1" y2="0.5" gradientUnits="objectBoundingBox">
      <stop offset="0" stop-color="#fff" stop-opacity="0"/>
      <stop offset="0.44" stop-color="#fbfefe" stop-opacity="0.012"/>
      <stop offset="0.6" stop-color="#eafcfa" stop-opacity="0.039"/>
      <stop offset="0.72" stop-color="#cef7f4" stop-opacity="0.102"/>
      <stop offset="0.81" stop-color="#a6f1eb" stop-opacity="0.169"/>
      <stop offset="0.89" stop-color="#72e8df" stop-opacity="0.278"/>
      <stop offset="0.96" stop-color="#32ded1" stop-opacity="0.4"/>
      <stop offset="1" stop-color="#00d6c6" stop-opacity="0.502"/>
    </linearGradient>
    <clipPath id="clip-path-2">
      <path id="Path_109" data-name="Path 109" class="cls-2" d="M2140.159,0V370.491c-91.768,46.511-175.5,95.3-251.467,140.607-70.676,42.147-134.552,81.313-192.1,112.86-62.8,34.547-120.225,62.494-173.445,85.368-235.557,101.332-389.11,102.132-563.391,116.242V0Z" transform="translate(-959.756)"/>
    </clipPath>
    <linearGradient id="linear-gradient-5" y1="0.5" x2="1" y2="0.5" gradientUnits="objectBoundingBox">
      <stop offset="0" stop-color="#6f0084"/>
      <stop offset="1" stop-color="#00aea0"/>
    </linearGradient>
    <linearGradient id="linear-gradient-6" x1="0" y1="0.5" x2="1" y2="0.5" xlink:href="#linear-gradient-5"/>
    <linearGradient id="linear-gradient-7" x1="0" y1="0.5" x2="1" y2="0.5" xlink:href="#linear-gradient-5"/>
    <linearGradient id="linear-gradient-8" x1="0" y1="0.5" x2="1" y2="0.5" xlink:href="#linear-gradient-5"/>
    <linearGradient id="linear-gradient-9" x1="-0.001" y1="0.491" x2="1" y2="0.491" xlink:href="#linear-gradient-5"/>
    <linearGradient id="linear-gradient-10" y1="0.499" x2="1" y2="0.499" gradientUnits="objectBoundingBox">
      <stop offset="0" stop-color="#00aea0"/>
      <stop offset="1" stop-color="#b800aa"/>
    </linearGradient>
    <linearGradient id="linear-gradient-11" y1="0.5" x2="1" y2="0.5" gradientUnits="objectBoundingBox">
      <stop offset="0" stop-color="#b800aa"/>
      <stop offset="1" stop-color="#00aea0"/>
    </linearGradient>
    <linearGradient id="linear-gradient-12" x1="-0.001" y1="0.5" x2="0.998" y2="0.5" xlink:href="#linear-gradient-11"/>
    <linearGradient id="linear-gradient-13" x1="0" y1="0.5" x2="1.012" y2="0.5" xlink:href="#linear-gradient-11"/>
    <linearGradient id="linear-gradient-14" x1="0" y1="0.5" x2="1" y2="0.5" xlink:href="#linear-gradient-10"/>
    <linearGradient id="linear-gradient-15" x1="0" y1="0.5" x2="1" y2="0.5" xlink:href="#linear-gradient-11"/>
    <linearGradient id="linear-gradient-16" x1="0" y1="0.5" x2="1" y2="0.5" xlink:href="#linear-gradient-10"/>
    <linearGradient id="linear-gradient-17" x1="0.001" y1="0.5" x2="1.001" y2="0.5" xlink:href="#linear-gradient-11"/>
    <linearGradient id="linear-gradient-18" x1="-0.051" y1="0.528" x2="0.713" y2="0.528" xlink:href="#linear-gradient-10"/>
    <linearGradient id="linear-gradient-19" x1="0" y1="0.5" x2="1" y2="0.5" xlink:href="#linear-gradient-5"/>
    <linearGradient id="linear-gradient-20" x1="-0.024" y1="0.397" x2="0.988" y2="0.397" xlink:href="#linear-gradient-11"/>
    <linearGradient id="linear-gradient-21" x1="0.389" y1="0.3" x2="0.611" y2="0.7" xlink:href="#linear-gradient-3"/>
    <linearGradient id="linear-gradient-22" x1="1.036" y1="1.394" x2="0.572" y2="0.541" gradientUnits="objectBoundingBox">
      <stop offset="0" stop-color="#00d6c6" stop-opacity="0.502"/>
      <stop offset="1" stop-color="#fff" stop-opacity="0"/>
    </linearGradient>
    <clipPath id="clip-nfi-test">
      <rect width="1920" height="706"/>
    </clipPath>
  </defs>
  <g id="nfi-test" class="cls-3">
    <rect class="cls-14" width="1920" height="706"/>
    <g id="Mask_Group_1" data-name="Mask Group 1" class="cls-4" transform="translate(0 -320)">
      <g id="nfi" transform="translate(-2763.818 0.106)">
        <g id="Wave">
          <path id="Path_1" data-name="Path 1" class="cls-5" d="M0,0V1255.661s664.978,21.4,1455.489-292.2c479.442-190.209,1078.98,76.513,1455.944,49.566,329.107-23.547,324.634-112.169,632.34-165.772s485.369,13.019,915.936-223.3c313.833-172.263,821.276-571.446,1557.566-446.913S7447.636,198.191,7447.636,0Z"/>
          <path id="Path_2" data-name="Path 2" class="cls-6" d="M0,0V1255.661s664.978,21.4,1455.489-292.2c479.442-190.209,1078.98,76.513,1455.944,49.566,329.107-23.547,324.634-112.169,632.34-165.772s485.369,13.019,915.936-223.3c313.833-172.263,821.276-571.446,1557.566-446.913S7447.636,198.191,7447.636,0Z"/>
          <path id="Path_3" data-name="Path 3" class="cls-7" d="M0,0V1255.661s664.978,21.4,1455.489-292.2c479.442-190.209,1078.98,76.513,1455.944,49.566,329.107-23.547,324.634-112.169,632.34-165.772s485.369,13.019,915.936-223.3c313.833-172.263,821.276-571.446,1557.566-446.913S7447.636,198.191,7447.636,0Z"/>
          <path id="Path_4" data-name="Path 4" class="cls-8" d="M0,0V1255.661s664.978,21.4,1455.489-292.2c479.442-190.209,1078.98,76.513,1455.944,49.566,329.107-23.547,324.634-112.169,632.34-165.772s485.369,13.019,915.936-223.3c313.833-172.263,821.276-571.446,1557.566-446.913S7447.636,198.191,7447.636,0Z"/>
        </g>
        <g id="Line" transform="translate(3722.873)">
          <path id="Path_5" data-name="Path 5" class="cls-9" d="M1181.405,154.62c1.927-1.527,5.6-3.146,6.964-1.818a13.292,13.292,0,0,1,2.963,6.782l-6.946,3.546Z" transform="translate(-321.636 438.499)"/>
          <path id="Path_6" data-name="Path 6" class="cls-9" d="M1184.741,165.012l-3.637-10.019.509-.418c1.818-1.4,6.128-3.637,8.146-1.818a14.058,14.058,0,0,1,3.255,7.455v.564Zm-1.4-9.382,2.418,6.818,5.455-2.782a13.128,13.128,0,0,0-2.618-5.582c-.673-.636-3.291.145-5.255,1.546Z" transform="translate(-322.5 437.818)"/>
          <path id="Path_7" data-name="Path 7" class="cls-9" d="M1187.732,153.646c2.273-1.309,4.8,6.237-1.982,10.164l-3.909-6.764Z" transform="translate(-320.381 441.91)"/>
          <path id="Path_8" data-name="Path 8" class="cls-10" d="M1187.732,153.646c2.273-1.309,4.8,6.237-1.982,10.164l-3.909-6.764Z" transform="translate(-320.381 441.91)"/>
          <circle id="Ellipse_1" data-name="Ellipse 1" class="cls-9" cx="15.419" cy="15.419" r="15.419" transform="translate(833.877 587.21)"/>
          <circle id="Ellipse_2" data-name="Ellipse 2" class="cls-11" cx="15.419" cy="15.419" r="15.419" transform="translate(827.741 600.053) rotate(-37.94)"/>
          <path id="Path_9" data-name="Path 9" class="cls-9" d="M1201.077,154.772c2.527,7.273,4.982,17.746-3.473,22.638-9.091,5.291-16.364-2.436-21.347-8.255Z" transform="translate(-336.453 445.585)"/>
          <path id="Path_10" data-name="Path 10" class="cls-10" d="M1201.077,154.772c2.527,7.273,4.982,17.746-3.473,22.638-9.091,5.291-16.364-2.436-21.347-8.255Z" transform="translate(-336.453 445.585)"/>
          <circle id="Ellipse_3" data-name="Ellipse 3" class="cls-12" cx="9.764" cy="9.764" r="9.764" transform="translate(838.877 592.211)"/>
          <circle id="Ellipse_4" data-name="Ellipse 4" class="cls-13" cx="9.764" cy="9.764" r="9.764" transform="translate(838.627 611.535) rotate(-88.83)"/>
          <path id="Path_11" data-name="Path 11" class="cls-14" d="M1296.132,234.2l-110.569,64.039a6.892,6.892,0,0,1-9.419-2.509l-42.238-73.076,122.515-70.913,42.329,73.076A6.909,6.909,0,0,1,1296.132,234.2Z" transform="translate(-458.383 436.867)"/>
          <path id="Path_12" data-name="Path 12" class="cls-14" d="M1269.551,250.227c-6.364,3.637-38.547,22.165-73.712,42.566l-6.636,3.855-1.655.964c-.545.327-1.146.673-1.564.873a5.578,5.578,0,0,1-2.981.436,5.291,5.291,0,0,1-2.746-1.2,8.247,8.247,0,0,1-1.963-2.691c-1.291-2.218-2.582-4.418-3.855-6.637l-14.892-25.565-22.528-38.42.254-.164c6.4-3.764,12.855-7.746,19.165-11.328,21.819-12.364,43.42-24.619,64.876-37.511,3.255-1.818,8.764-4.946,15.364-8.764l20.892-12.164,20.4,34.747,17.892,30.656,3.509,5.891a6.654,6.654,0,0,1,1,5.928,10.674,10.674,0,0,1-2.455,3.782c-.146.236,0,.327.309.2a4.438,4.438,0,0,0,1.818-1.291,7.492,7.492,0,0,0,2-4.564,7.29,7.29,0,0,0-.309-2.782,9.531,9.531,0,0,0-.545-1.346l-.619-1.127c-2.654-4.764-5.455-9.71-8.328-14.546l-33.893-58.712-101.823,58.766-23.183,13.4,26.092,45.039c3.182,5.455,7.164,12.273,11.328,19.437l3.164,5.455,1.582,2.727.8,1.364a10.1,10.1,0,0,0,1.037,1.491,8.183,8.183,0,0,0,10.073,1.946c.982-.546,1.818-1.018,2.637-1.527l24.583-14.31,41.4-23.91c12-7.018,23.947-14.164,35.62-21.2a35.671,35.671,0,0,0,5.982-4.382c.2-.236-4.873,2.346-10.909,5.546s-13.219,6.891-17.183,9.073Z" transform="translate(-460.003 435.625)"/>
          <rect id="Rectangle_2" data-name="Rectangle 2" class="cls-9" width="11.037" height="11.037" rx="0.413" transform="translate(703.261 681.278) rotate(-30.08)"/>
          <rect id="Rectangle_3" data-name="Rectangle 3" class="cls-15" width="11.037" height="11.037" rx="0.413" transform="translate(703.243 681.26) rotate(-30.08)"/>
          <rect id="Rectangle_4" data-name="Rectangle 4" class="cls-9" width="11.037" height="11.037" rx="0.413" transform="translate(719.748 671.716) rotate(-30.08)"/>
          <path id="Path_13" data-name="Path 13" class="cls-9" d="M1156.527,182.961c-.328.127-1.218.6-2.437,1.291l-1.963,1.109a.11.11,0,0,1-.109,0l-.164-.255c-.963-1.6-1.946-3.236-2.836-4.691l-1.145-1.818a.416.416,0,0,1,0-.418v-.146l.4-.309a4.235,4.235,0,0,1,.837-.564c1.018-.473,2.054-.946,3.036-1.473a14.489,14.489,0,0,0,1.455-.855l.709-.473.327-.255.127-.127a.913.913,0,0,1,.491.255l1.181,1.818,1.909,2.855.837,1.346.345.509a.91.91,0,0,1,.218.564,1.679,1.679,0,0,1,0,.782c-.109.291,0,1.055.564.982a1.565,1.565,0,0,0,1.091-.8,2.488,2.488,0,0,0-.127-2.418l-2-3.636-1-1.818-.509-.891-.254-.455a3.087,3.087,0,0,0-.545-.709,2.892,2.892,0,0,0-3.455-.4l-1.818,1-3.637,2.018-1.527.855a3.047,3.047,0,0,0-.982,4.2l.436.746.873,1.473,2.255,3.637.563.909a2.907,2.907,0,0,0,1.091.945,3.427,3.427,0,0,0,.927.291h.363a2.852,2.852,0,0,0,.946-.146,2.223,2.223,0,0,0,.437-.182l.272-.145.945-.509a17.719,17.719,0,0,0,1.818-1.073,24.2,24.2,0,0,0,2.981-2.309,1.131,1.131,0,0,0,.183-1,7.528,7.528,0,0,0-3.109.291Z" transform="translate(-426.201 493.927)"/>
          <rect id="Rectangle_5" data-name="Rectangle 5" class="cls-9" width="11.037" height="11.037" rx="0.413" transform="translate(736.234 662.172) rotate(-30.08)"/>
          <rect id="Rectangle_6" data-name="Rectangle 6" class="cls-15" width="11.037" height="11.037" rx="0.413" transform="translate(736.253 662.19) rotate(-30.08)"/>
          <rect id="Rectangle_7" data-name="Rectangle 7" class="cls-9" width="11.037" height="11.037" rx="0.413" transform="translate(752.73 652.612) rotate(-30.08)"/>
          <rect id="Rectangle_8" data-name="Rectangle 8" class="cls-15" width="11.037" height="11.037" rx="0.413" transform="translate(752.73 652.594) rotate(-30.08)"/>
          <rect id="Rectangle_9" data-name="Rectangle 9" class="cls-9" width="39.191" height="11.075" rx="0.414" transform="translate(789.422 651.46) rotate(-29.887)"/>
          <rect id="Rectangle_10" data-name="Rectangle 10" class="cls-16" width="39.191" height="11.075" rx="0.414" transform="translate(789.422 651.46) rotate(-29.887)"/>
          <rect id="Rectangle_11" data-name="Rectangle 11" class="cls-9" width="11.037" height="11.037" rx="0.413" transform="translate(704.796 655.981) rotate(-30.08)"/>
          <rect id="Rectangle_12" data-name="Rectangle 12" class="cls-15" width="11.037" height="11.037" rx="0.413" transform="translate(704.796 655.963) rotate(-30.08)"/>
          <rect id="Rectangle_13" data-name="Rectangle 13" class="cls-9" width="11.037" height="11.037" rx="0.413" transform="translate(721.291 646.403) rotate(-30.08)"/>
          <rect id="Rectangle_14" data-name="Rectangle 14" class="cls-15" width="11.037" height="11.037" rx="0.413" transform="translate(721.291 646.421) rotate(-30.08)"/>
          <rect id="Rectangle_15" data-name="Rectangle 15" class="cls-9" width="11.037" height="11.037" rx="0.413" transform="translate(688.39 665.493) rotate(-30.08)"/>
          <rect id="Rectangle_16" data-name="Rectangle 16" class="cls-15" width="11.037" height="11.037" rx="0.413" transform="translate(688.371 665.475) rotate(-30.08)"/>
          <rect id="Rectangle_17" data-name="Rectangle 17" class="cls-9" width="11.037" height="11.037" rx="0.413" transform="translate(737.762 636.868) rotate(-30.08)"/>
          <rect id="Rectangle_18" data-name="Rectangle 18" class="cls-15" width="11.037" height="11.037" rx="0.413" transform="translate(737.762 636.868) rotate(-30.08)"/>
          <rect id="Rectangle_19" data-name="Rectangle 19" class="cls-9" width="11.037" height="11.037" rx="0.413" transform="translate(754.248 627.324) rotate(-30.08)"/>
          <rect id="Rectangle_20" data-name="Rectangle 20" class="cls-15" width="11.037" height="11.037" rx="0.413" transform="translate(754.248 627.306) rotate(-30.08)"/>
          <rect id="Rectangle_21" data-name="Rectangle 21" class="cls-9" width="50.912" height="16.965" rx="0.413" transform="translate(741.702 683.415) rotate(-30.08)"/>
          <rect id="Rectangle_22" data-name="Rectangle 22" class="cls-15" width="50.912" height="16.965" rx="0.413" transform="translate(741.702 683.415) rotate(-30.08)"/>
          <rect id="Rectangle_23" data-name="Rectangle 23" class="cls-9" width="11.037" height="11.037" rx="0.413" transform="translate(770.753 617.78) rotate(-30.08)"/>
          <rect id="Rectangle_24" data-name="Rectangle 24" class="cls-15" width="11.037" height="11.037" rx="0.413" transform="translate(770.753 617.798) rotate(-30.08)"/>
          <rect id="Rectangle_25" data-name="Rectangle 25" class="cls-9" width="11.037" height="11.037" rx="0.413" transform="translate(787.24 608.236) rotate(-30.08)"/>
          <rect id="Rectangle_26" data-name="Rectangle 26" class="cls-15" width="11.037" height="11.037" rx="0.413" transform="translate(787.24 608.218) rotate(-30.08)"/>
          <path id="Path_14" data-name="Path 14" class="cls-17" d="M1292.283,184.622c4.892,8.437,3.637,38.947,1.818,47.966s-7.127,20.528-43.947,41.82-49.348,20-58.185,17.31-33.911-17.674-38.8-26.11Z" transform="translate(-402.931 531.522)"/>
          <path id="Path_15" data-name="Path 15" class="cls-18" d="M1292.283,184.622c4.892,8.437,3.637,38.947,1.818,47.966s-7.127,20.528-43.947,41.82-49.348,20-58.185,17.31-33.911-17.674-38.8-26.11Z" transform="translate(-402.931 531.522)"/>
          <path id="Path_16" data-name="Path 16" class="cls-19" d="M1254.147,176.978c-7.928.164-46.384-1.564-49.912-2.964s-12.237-7.837-14.037-8.91-6.619-3.291-7.456-3.818a10.237,10.237,0,0,0-3.764-.418c-1.164,0-3.273-.2-3.637,1.164a6.111,6.111,0,0,0-1.636-.491c-1.145,0-2.382,1.309-2.982,2.291s-.909,2.218-.182,2.927a7.854,7.854,0,0,0-2.709-.345,6.109,6.109,0,0,0-4,3.636,4.239,4.239,0,0,0,.4,2.655,20.452,20.452,0,0,0-3.637-.6,1.818,1.818,0,0,0-1,3.055c1.11,1.073,8.764,4.291,9.619,4.691l1.909.855c-2,.564-3.637,1.455-3.637,2.8-.164,2.036,2.618,1.382,5.128,2.382s6.545,2.964,10.528,4.218a44.6,44.6,0,0,0,12.729,1.582c2.054-.2,4.508-2.255,8.836-1.909s44.547,7.619,47.384,9.619l26.71,2.727a27.686,27.686,0,0,0-1.436-11.964c-3.982-8.164-10.892-13.346-23.22-13.182Zm-82.658-2.582c-.637-.109-3.273-.764-5.819-1.345.782-.527,1.818-1.455,2.364-1.418a63.742,63.742,0,0,1,7.782,3.636c-1.291-.109-3.491-.673-4.382-.8Zm.563-7.273c.509-.236.873-.727,1.272-.655.728.164,4.382,2.237,6,2.982-1.545-.309-4.709-1.418-7.328-2.2Z" transform="translate(-385.887 463.053)"/>
          <path id="Path_17" data-name="Path 17" d="M1184.541,171.278c-.327-.309-.927.364-.636,1.055,0,.127.291.436.182.382-.381-.164-.909-.364-.4.309-.637-.4-.109.655-.109.691v.364a1.343,1.343,0,0,0,.364.327c.218.164,1.455.818,1.945,1.073l.728.4.182.109a1.256,1.256,0,0,0,.6,0s.182,0,.182-.127-.127-.527,0-.473.254.127.218,0a5.477,5.477,0,0,0-.491-.873l-.946-1.273c-.309-.291-1.6-1.8-1.818-1.964Z" transform="translate(-315.972 492.882)"/>
          <path id="Path_18" data-name="Path 18" class="cls-19" d="M1183.347,182.714c-.727,1.946-2.272,9.728-2.873,11.419a97.786,97.786,0,0,0-3.491,9.855,15.375,15.375,0,0,1-3.982,6.473c-2.072,2.182-4.709,10.637-5.691,16.892-.818,5.128-2.073,30.474-2.855,38.4,4.491.836,18.092,6.582,25.893,8.982l-13.91,29.092c-12.728-3.382-31.729-14.546-36.22-23.638s.327-30.092,1.928-34.638,15.51-33.856,15.819-36.838-2.164-10.582-3.055-14.055a63.746,63.746,0,0,1-1.818-11,19.806,19.806,0,0,1,2.745-5.782,7.153,7.153,0,0,1,1.109-.927,8.459,8.459,0,0,1,3.836-3.491c.782-.218,1.455.909,1.564,2.2a18.453,18.453,0,0,1,.2-2.746c.272-.873,3.073-2.273,3.873-2.527a3.419,3.419,0,0,1,2.91,1.455c.69.927-.437,1.818-1.073,2s-.491,1.291-.31,2.727.818,8.219,1.818,6.928,2.328-6.837,3.073-9.382c.636-2.2,2.127-7.6,3.636-7.364s1.636,4.218.927,7.273a86.384,86.384,0,0,0-1.273,13.764,35.323,35.323,0,0,1,3.292-5.091c2-2.382,4.655-1.927,3.927.018Z" transform="translate(-445.584 480.046)"/>
          <path id="Path_19" data-name="Path 19" class="cls-20" d="M1148.6,198.78c0-1.018.218-7.509.291-9.891m-5.327,14.4c0-1.455-.8-8.31-.291-9.764m78.022-32.547a73.908,73.908,0,0,1,8.673,4.928" transform="translate(-431.91 463.452)"/>
          <path id="Path_20" data-name="Path 20" class="cls-12" d="M1337.166,219.536c-2.418,9.091-7.273,20.619-11.019,29.8s-19,34.438-51.6,53.312c-12.728,7.273-28.293,15.946-41.82,18.674s-31.711-4.691-36.475-5.455-49.257-26.6-53.457-28.238-3.982-6.819,0-14.546c4.237-8.128,14.419-14.164,18.964-14.273s34.984,7.273,39.6,5.455,10-4.346,20.728-7.782c19.4-6.2,48.966-30.074,48.966-30.074,3.854-2.255,12.037-14.546,14.546-15.346,2.146-.873,7.4-9.437,8.946-10.637a4.136,4.136,0,0,1,1.054-.945c1.51-1.418,6.564-8.673,7.509-12.419a49.256,49.256,0,0,1,1.819-5.655c1.436-4.891,5.945-8.382,11.782-10.91,11.4-4.982,17.6-2.091,19.729.527s3.091,39.4.727,48.511Z" transform="translate(-441.631 483.025)"/>
          <path id="Path_21" data-name="Path 21" class="cls-21" d="M1337.166,219.536c-2.418,9.091-7.273,20.619-11.019,29.8s-19,34.438-51.6,53.312c-12.728,7.273-28.293,15.946-41.82,18.674s-31.711-4.691-36.475-5.455-49.257-26.6-53.457-28.238-3.982-6.819,0-14.546c4.237-8.128,14.419-14.164,18.964-14.273s34.984,7.273,39.6,5.455,10-4.346,20.728-7.782c19.4-6.2,48.966-30.074,48.966-30.074,3.854-2.255,12.037-14.546,14.546-15.346,2.146-.873,7.4-9.437,8.946-10.637a4.136,4.136,0,0,1,1.054-.945c1.51-1.418,6.564-8.673,7.509-12.419a49.256,49.256,0,0,1,1.819-5.655c1.436-4.891,5.945-8.382,11.782-10.91,11.4-4.982,17.6-2.091,19.729.527s3.091,39.4.727,48.511Z" transform="translate(-441.631 483.025)"/>
          <path id="Path_22" data-name="Path 22" class="cls-20" d="M1172.968,171.56c-1.236-.291-3.509-1.255-4.346-1.382s-6.019-1.618-8.564-2.2m16.419-2.255c-1.564-.436-7.964-2.764-10.6-3.546m78.567,30.583a36,36,0,0,1,9.455-11.019" transform="translate(-383.093 466.907)"/>
          <path id="Path_23" data-name="Path 23" class="cls-22" d="M1213.027,185.082c-5.655-4.055-22.183-13.364-40.221-3.891-19.656,10.364-13.783,41.075-12.182,47.275Z" transform="translate(-387.423 509.806)"/>
          <path id="Path_24" data-name="Path 24" class="cls-23" d="M1213.027,185.082c-5.655-4.055-22.183-13.364-40.221-3.891-19.656,10.364-13.783,41.075-12.182,47.275Z" transform="translate(-387.423 509.806)"/>
          <path id="Path_25" data-name="Path 25" class="cls-22" d="M1173.3,179.453c-1.818-.836-6.764-3.637-9.746-1.818s-3.055,7.473-3.2,9.382Z" transform="translate(-382.243 509.672)"/>
          <path id="Path_26" data-name="Path 26" class="cls-23" d="M1173.3,179.453c-1.818-.836-6.764-3.637-9.746-1.818s-3.055,7.473-3.2,9.382Z" transform="translate(-382.243 509.672)"/>
          <path id="Path_27" data-name="Path 27" class="cls-24" d="M1161.491,215.368s-2.346-18.692,10.31-28.365,30.91-12.382,45.948-2.164,11.655,28.965,15.528,37.711,11.709,23.438,3.546,38.784-35.547,16.6-38.856,5.182-8.437-10.11-15.8-12.473-18.691-12.091-21.492-20.583c-4.055-12.346.818-18.092.818-18.092Z" transform="translate(-385.963 513.468)"/>
          <path id="Path_28" data-name="Path 28" class="cls-25" d="M1161.491,215.368s-2.346-18.692,10.31-28.365,30.91-12.382,45.948-2.164,11.655,28.965,15.528,37.711,11.709,23.438,3.546,38.784-35.547,16.6-38.856,5.182-8.437-10.11-15.8-12.473-18.691-12.091-21.492-20.583c-4.055-12.346.818-18.092.818-18.092Z" transform="translate(-385.963 513.468)"/>
          <g id="Group_1" data-name="Group 1" class="cls-26">
            <path id="Path_29" data-name="Path 29" class="cls-27" d="M1185.755,28.771l-.019-3.637-12.383.073-.072-11.473h-1.818l.073,11.491-12.382.055.018,3.637,12.382-.055.073,11.473,1.818-.018-.073-11.473,12.383-.073Z" transform="translate(-385.698 39.541)"/>
            <path id="Path_30" data-name="Path 30" class="cls-28" d="M1071.206,89.606l-8.182-8.055,8.036-8.182-2.6-2.546-8.036,8.182-8.182-8.037-2.545,2.6,8.182,8.037-8.036,8.182,2.582,2.546,8.055-8.182,8.182,8.037Z" transform="translate(-700.824 203.899)"/>
            <path id="Path_31" data-name="Path 31" class="cls-29" d="M1104.227,128.149l-6.655-5.891,5.91-6.655-2.728-2.418-5.909,6.655-6.637-5.909-2.419,2.727,6.655,5.891-5.909,6.655,2.709,2.418,5.909-6.655,6.655,5.909Z" transform="translate(-596.911 325.855)"/>
            <path id="Path_32" data-name="Path 32" class="cls-30" d="M976.449,336.7c-14.2-17-3.837-33.947,7-48.493,7.618-10.219,4.164-17.383-.236-26.456-3.292-6.8-7-14.546-5.909-24.4,1.236-11.31,6.273-15.292,11.146-19.146,5.182-4.109,10.546-8.346,13.019-22.183,2.255-12.582-.745-19.346-3.636-25.874-3.455-7.746-6.746-15.073-1.364-30.056l3.418,1.236c-4.873,13.582-2.037,20,1.272,27.274,3,6.691,6.382,14.292,3.927,27.983-2.727,15.2-8.909,20.092-14.346,24.4-4.673,3.637-8.709,6.891-9.782,16.692-.982,8.873,2.345,15.764,5.564,22.419,4.546,9.364,8.819,18.183-.127,30.22-10.455,14.037-19.637,29.092-7.109,43.984Z" transform="translate(-931.611 403.331)"/>
            <path id="Path_33" data-name="Path 33" class="cls-31" d="M1168.23,447.5c0-169.7,85.6-299.524,85.6-299.524L1192.559,116.9c-37.875-3.4-51.657,12.4-54.166,51.221-1.709,26.438-50.912,19.165-64.221,49.093-14.928,33.82,15.928,52.039-19.874,90.114-32.51,34.547-70,114.551-14.692,167.954,0,0,39.02-6.6,64.312-12.328s64.313-15.455,64.313-15.455Z" transform="translate(-811.158 335.266)"/>
            <path id="Path_34" data-name="Path 34" class="cls-32" d="M1064.979,232.379c-21.819-54.275,30.747-72.84,51.784-70.04,23.128,3.073,35.02-5.455,33.292-31.911-2.291-34.929,23.546-56.894,60.821-58.185s39.293-4.582,54.439-32.856S1313.136-.306,1343.829-8l22.983,160.171s-113.587,12.255-263.8,131.843Z" transform="translate(-671.796 -23.023)"/>
            <path id="Path_35" data-name="Path 35" class="cls-33" d="M1107.725,141.362c-4.455-31.111,25.855-46.62,48.475-32.111,27.8,17.837,14.31-20.474,52.366-15.71l10.655,39.838s-56,23.838-85.24,45.966Z" transform="translate(-535.024 268.113)"/>
            <path id="Path_36" data-name="Path 36" class="cls-30" d="M990.658,336.036c-10.473-12.437-6.982-33.383,8.128-48.711,12.491-12.728,5.764-24-.182-34.02l-1.218-2.055c-6.237-10.71-1.473-36.475,19.91-50.912,7.273-4.946,5.073-10.764,0-21.474-4.728-10.146-10.6-22.765-3.764-37.275l3.291,1.546c-6.11,12.983-.854,24.256,3.782,34.183s8.891,19.11-1.345,26.038c-19,12.855-24.419,36.456-18.8,46.093.382.673.782,1.345,1.2,2.036,5.946,10.037,14.11,23.783-.345,38.438-13.783,13.983-17.2,32.729-7.946,43.8Z" transform="translate(-888.126 407.636)"/>
            <path id="Path_37" data-name="Path 37" class="cls-28" d="M1021.349,107.228,1019.2,77.045l3.636-.255,1.873,26.547,26.565-1.873.255,3.618Z" transform="translate(-788.61 221.078)"/>
            <path id="Path_38" data-name="Path 38" class="cls-34" d="M1109.83,199.772,1089.792,185.9l2.073-2.982,17.055,11.8,11.8-17.037,2.981,2.073-13.873,20.019Z" transform="translate(-585.386 511.536)"/>
            <path id="Path_39" data-name="Path 39" class="cls-30" d="M1046.739,189.848l-15.6-22.765,3-2.055,13.546,19.765,19.765-13.546,2.054,3-22.765,15.6Z" transform="translate(-754.252 475.112)"/>
            <path id="Path_40" data-name="Path 40" class="cls-34" d="M1130,138.291a5.455,5.455,0,1,0,.053,5.437,5.456,5.456,0,0,0-.053-5.437Z" transform="translate(-499.7 388.753)"/>
            <path id="Path_41" data-name="Path 41" class="cls-29" d="M1095.382,152a7.913,7.913,0,1,0-8.728,11.728,8.556,8.556,0,0,0,1.818.236A7.892,7.892,0,0,0,1095.2,152Z" transform="translate(-611.631 426.506)"/>
            <path id="Path_42" data-name="Path 42" class="cls-17" d="M1218.288,105.7c-.327-.382-1.291-.345-1.818-.109a1.436,1.436,0,0,0,.945-.909,2.415,2.415,0,0,0-.146-1.6,5.933,5.933,0,0,0-1.727-1.818,11.364,11.364,0,0,0-12.929-.109,11.674,11.674,0,0,0-4.31,5.346,11.092,11.092,0,0,0-.418,7,10.784,10.784,0,0,0,8.346,7.819,11.492,11.492,0,0,0,7.091-.982,11.9,11.9,0,0,0,2.527-1.673,12.159,12.159,0,0,0,.909-.837,10.073,10.073,0,0,0,3.364-6.273,8.163,8.163,0,0,0-1.836-5.855ZM1062.5,492.92a10.6,10.6,0,0,0-18.182,10.91,10,10,0,0,0,6.437,4.619,10.292,10.292,0,0,0,2.346.255,10.748,10.748,0,0,0,5.582-1.564,10.419,10.419,0,0,0,3.819-14.219Z" transform="translate(-720.664 285.572)"/>
            <path id="Path_43" data-name="Path 43" class="cls-35" d="M1096.317,50.818a10.035,10.035,0,0,0-6.437-4.6,10.91,10.91,0,0,0-12.728,7.709,10,10,0,0,0,1.073,7.837,10.22,10.22,0,0,0,8.782,4.873,10.909,10.909,0,0,0,10.455-7.964,10.125,10.125,0,0,0-1.145-7.855Z" transform="translate(-622.822 132.391)"/>
            <path id="Path_44" data-name="Path 44" class="cls-27" d="M1051.565,50.692a9.091,9.091,0,0,0-5.855-4.2A9.928,9.928,0,0,0,1034,53.546a9.093,9.093,0,0,0,.982,7.146,9.291,9.291,0,0,0,8,4.436,9.89,9.89,0,0,0,5.11-1.436,9.528,9.528,0,0,0,3.473-13Z" transform="translate(-746.968 133.172)"/>
            <path id="Path_45" data-name="Path 45" class="cls-17" d="M1186.751,135.316a10.655,10.655,0,0,0-4.564-6.619,10.018,10.018,0,0,0-14.182,3.219,10.909,10.909,0,0,0,3.31,14.546,9.943,9.943,0,0,0,5.563,1.691,9.352,9.352,0,0,0,2.219-.255,9.928,9.928,0,0,0,6.4-4.655,10.725,10.725,0,0,0,1.254-7.928Zm5.327-81.459a10.8,10.8,0,0,0-4.564-6.618,10.037,10.037,0,0,0-14.2,3.236,10.655,10.655,0,0,0-1.236,7.928,10.51,10.51,0,0,0,10.128,8.309,10.216,10.216,0,0,0,2.218-.236A10.454,10.454,0,0,0,1192.079,53.858Zm247.013,144.534a10.713,10.713,0,0,0-4.546-6.619,10.126,10.126,0,0,0-7.8-1.436,10.6,10.6,0,1,0,4.709,20.674,10.109,10.109,0,0,0,6.4-4.673,10.728,10.728,0,0,0,1.237-7.946Z" transform="translate(-364.512 131.151)"/>
            <path id="Path_46" data-name="Path 46" class="cls-27" d="M1255.93,26.584a12.725,12.725,0,0,0-9.327-1.727,11.763,11.763,0,0,0-7.637,5.255,12.291,12.291,0,0,0,4.145,16.837,12.838,12.838,0,0,0,6.8,1.964,11.875,11.875,0,0,0,10.165-5.455,12.255,12.255,0,0,0-4.146-16.874Z" transform="translate(-160.986 70.839)"/>
            <path id="Path_47" data-name="Path 47" class="cls-17" d="M1037.292,480.214A13.493,13.493,0,0,0,1031.31,472a12.946,12.946,0,1,0-13.783,21.819,13.6,13.6,0,0,0,7.273,2.127,12.728,12.728,0,0,0,12.492-15.8Zm432.73-445.476a12.946,12.946,0,1,0-13.783,21.819,13.765,13.765,0,0,0,7.273,2.109,12.838,12.838,0,0,0,10.911-5.928,13.2,13.2,0,0,0-4.4-18Z" transform="translate(-813.409 92.541)"/>
            <path id="Path_48" data-name="Path 48" class="cls-27" d="M1036.373,129.222a15.963,15.963,0,0,0-7.037-9.637,15.437,15.437,0,0,0-21.237,4.436,14.675,14.675,0,0,0-1.818,11.51,16.146,16.146,0,0,0,15.583,12.128,15.038,15.038,0,0,0,12.729-6.909,14.874,14.874,0,0,0,1.782-11.528ZM1322.75,28.563a16.545,16.545,0,0,0-16.237-8.873,15.493,15.493,0,0,0-8.927,3.928,15.129,15.129,0,0,0-4.418,15.146,16.367,16.367,0,0,0,5.455,8.419,17.089,17.089,0,0,0,3.636,2.237,15.155,15.155,0,0,0,1.654.655,15.473,15.473,0,0,0,10.091.164,13.8,13.8,0,0,0,6.892-5.346,2.093,2.093,0,0,0,.237-1.673c.127.255.4.291.763,0a5,5,0,0,0,1.254-1.618,12.1,12.1,0,0,0,1.072-3.418,15.781,15.781,0,0,0-1.473-9.619Z" transform="translate(-827.145 56.478)"/>
            <path id="Path_49" data-name="Path 49" class="cls-29" d="M1117.033,165.979a7.891,7.891,0,1,0-1.528,9.889,7.891,7.891,0,0,0,1.528-9.889Zm80.458-55.694a7.893,7.893,0,0,0-13.51,8.164,7.784,7.784,0,0,0,4.855,3.636,7.623,7.623,0,0,0,1.818.236,7.891,7.891,0,0,0,6.746-11.964Z" transform="translate(-549.242 306.535)"/>
            <path id="Path_50" data-name="Path 50" class="cls-34" d="M1177.014,99.13a7.891,7.891,0,1,0-8.655,11.728,7.782,7.782,0,0,0,5.964-.909,7.891,7.891,0,0,0,2.691-10.91Z" transform="translate(-376.466 274.379)"/>
            <path id="Path_51" data-name="Path 51" class="cls-9" d="M1178.909,129.972a5.146,5.146,0,0,0-3.8-1.164,5.089,5.089,0,0,0-3.509,1.818,5.2,5.2,0,1,0,7.273-.691Z" transform="translate(-353.36 370.762)"/>
            <path id="Path_52" data-name="Path 52" class="cls-34" d="M1178.815,113.129a6.1,6.1,0,0,0-7.765,9.419,6.035,6.035,0,0,0,3.873,1.4h.6a6.111,6.111,0,0,0,3.292-10.8Z" transform="translate(-357.83 321.692)"/>
            <path id="Path_53" data-name="Path 53" class="cls-9" d="M1478.432,189.663a3,3,0,0,0-2.236-.691,3.078,3.078,0,1,0,2.237.691ZM1349.48,234.938a3.055,3.055,0,0,0-2.237-.691,3.09,3.09,0,0,0-2.072,1.109,3.048,3.048,0,1,0,4.309-.418Zm-116.86,15.073a3.055,3.055,0,1,0-1.946,5.455h.292a3.1,3.1,0,0,0,1.655-5.455Zm130.642-9.71a2.971,2.971,0,1,0,1.146,2.073,3.072,3.072,0,0,0-1.146-2.073Zm-51.53-92.732a3.055,3.055,0,1,0-3.892,4.709,3.11,3.11,0,0,0,1.945.691,3.05,3.05,0,0,0,1.946-5.4Zm-81.2,11.164a3.055,3.055,0,1,0-1.945,5.455h.291a3.019,3.019,0,0,0,2.746-3.327,2.963,2.963,0,0,0-1.091-2.127Zm159.026,110.842a3.054,3.054,0,0,0-2.236-.691,3.089,3.089,0,0,0-2.072,1.109,3.035,3.035,0,0,0,.417,4.291,3,3,0,0,0,1.928.709h.309a2.98,2.98,0,0,0,2.055-1.109,3.055,3.055,0,0,0-.4-4.309Zm48.257-167.463a5.2,5.2,0,1,0,1.554,5.728A5.2,5.2,0,0,0,1437.812,102.113ZM1101.268,307.741a5.2,5.2,0,0,0-3.8-1.164,5.112,5.112,0,0,0-3.51,1.818,5.06,5.06,0,0,0-1.163,3.8,5.2,5.2,0,1,0,8.474-4.455Z" transform="translate(-576.825 290.633)"/>
            <path id="Path_54" data-name="Path 54" class="cls-28" d="M1218.674,22.3a6.109,6.109,0,1,0-3.909,10.819h.6a6.129,6.129,0,0,0,3.309-10.819Z" transform="translate(-243.136 60.162)"/>
            <path id="Path_55" data-name="Path 55" class="cls-17" d="M1249.736,65.483a6.181,6.181,0,0,0-4.473-1.382,6.119,6.119,0,1,0,4.472,1.382Z" transform="translate(-153.682 184.475)"/>
            <path id="Path_56" data-name="Path 56" class="cls-28" d="M1216.535,15.232a6.109,6.109,0,1,0,.819,8.6,6.127,6.127,0,0,0-.819-8.6Z" transform="translate(-249.288 39.844)"/>
            <circle id="Ellipse_5" data-name="Ellipse 5" class="cls-27" cx="4.291" cy="4.291" r="4.291" transform="translate(985.793 8.055)"/>
            <path id="Path_57" data-name="Path 57" class="cls-27" d="M1218.85,12.18a5.164,5.164,0,0,1-5.164-4.709,5.07,5.07,0,0,1,1.163-3.746,5.173,5.173,0,1,1,4,8.455Zm0-8.582h-.327a3.4,3.4,0,0,0-3.055,3.637,3.454,3.454,0,0,0,1.219,2.291A3.384,3.384,0,0,0,1221,4.307a3.347,3.347,0,0,0-2.146-.709Z" transform="translate(-228.766 5.366)"/>
            <path id="Path_58" data-name="Path 58" class="cls-36" d="M1019.335,128.194a6.108,6.108,0,1,0,.818,8.6,6.09,6.09,0,0,0-.818-8.6Zm61.549-4.382a6.091,6.091,0,1,0,.818,8.6,6.091,6.091,0,0,0-.818-8.6Z" transform="translate(-816.998 352.466)"/>
            <path id="Path_59" data-name="Path 59" class="cls-34" d="M1160.193,88.191a3.117,3.117,0,1,0,.055,0Z" transform="translate(-407.011 250.553)"/>
            <path id="Path_60" data-name="Path 60" class="cls-27" d="M1050.266,218.8a6.109,6.109,0,1,0-3.909,10.91h.6a6.127,6.127,0,0,0,3.309-10.8Zm-71.84,32a6.109,6.109,0,1,0,.836,8.6,6.109,6.109,0,0,0-.836-8.6Zm33.311-52.512a6.109,6.109,0,1,0-7.782,9.419,6.017,6.017,0,0,0,3.873,1.4,6.11,6.11,0,0,0,3.909-10.819Z" transform="translate(-934.769 566.852)"/>
            <circle id="Ellipse_6" data-name="Ellipse 6" class="cls-27" cx="4.291" cy="4.291" r="4.291" transform="translate(189.845 434.421)"/>
            <path id="Path_61" data-name="Path 61" class="cls-27" d="M1013.632,122.138a5.271,5.271,0,0,1-3.309-1.182,5.163,5.163,0,0,1-1.818-3.527,5.073,5.073,0,0,1,1.163-3.8,5.173,5.173,0,0,1,7.982,6.582,5.146,5.146,0,0,1-3.509,1.818Zm0-8.582h-.327a3.4,3.4,0,0,0-3.054,3.636,3.455,3.455,0,0,0,1.218,2.291,3.384,3.384,0,0,0,4.31-5.219,3.345,3.345,0,0,0-2.127-.709Z" transform="translate(-819.495 321.775)"/>
            <circle id="Ellipse_7" data-name="Ellipse 7" class="cls-27" cx="4.291" cy="4.291" r="4.291" transform="translate(146.716 443.167)"/>
            <path id="Path_62" data-name="Path 62" class="cls-27" d="M1002.5,124.438a5.2,5.2,0,1,1,4.018-1.818,5.255,5.255,0,0,1-4.018,1.818Zm0-8.582h-.327a3.309,3.309,0,0,0-2.291,1.218,3.376,3.376,0,1,0,2.618-1.164Z" transform="translate(-851.489 328.311)"/>
            <circle id="Ellipse_8" data-name="Ellipse 8" class="cls-27" cx="4.291" cy="4.291" r="4.291" transform="translate(107.332 351.944)"/>
            <path id="Path_63" data-name="Path 63" class="cls-27" d="M993.068,102.482a6.109,6.109,0,1,1,4.71-2.218A6.11,6.11,0,0,1,993.068,102.482Zm0-8.582a2.473,2.473,0,0,0-1.582,4.437,2.545,2.545,0,0,0,1.818.546,2.468,2.468,0,0,0-.237-4.928Z" transform="translate(-881.444 259.863)"/>
            <path id="Path_64" data-name="Path 64" class="cls-34" d="M1150.647,125.255a5.455,5.455,0,1,0-1.818,7.437,5.455,5.455,0,0,0,1.818-7.437Z" transform="translate(-439.377 352.95)"/>
            <path id="Path_65" data-name="Path 65" class="cls-36" d="M1092.074,137.927l-3.637-.455c.109-.782,2.582-19.383,20.382-26.838A30.112,30.112,0,0,1,1128,108.817a28.073,28.073,0,0,0,19.874-2.691c8.6-4.128,11.11-9.473,13.764-15.11,2.837-6.055,5.782-12.31,16.146-16.364,10.782-4.182,17.183-1.418,22.837,1.018,4.728,2.055,8.8,3.818,15.183,1.364s10.746-7.655,15.4-13.164c5.891-7,12-14.237,22.8-16.91,19.528-4.818,33.675,9.237,34.256,9.855l-2.582,2.546c-.127-.127-13.346-13.182-30.8-8.873-9.656,2.4-15.383,9.091-20.893,15.728-4.746,5.618-9.637,11.437-16.873,14.219-7.764,2.982-12.928.745-17.947-1.418-5.455-2.364-10.674-4.618-20-.964-9.091,3.491-11.4,8.582-14.165,14.546s-5.709,12.146-15.474,16.837c-10.328,4.946-16.364,3.964-22.055,3a26.856,26.856,0,0,0-17.183,1.6c-15.855,6.564-18.219,23.71-18.219,23.892Zm19.346,32.365-3.072-1.946c9.091-14.364,19.346-22.347,44.784-20.51,13.164.945,17.038-5.855,21.546-13.728,3.637-6.237,7.273-12.728,15.746-15.492,9.418-3.127,15.837-1.073,22.038.891,6.51,2.073,12.637,4.018,22.71.8,6.964-2.218,12.474-7.928,17.819-13.455,10.11-10.455,20.547-21.256,40.439-9.091l-1.818,3.109c-17.4-10.637-25.983-1.818-35.93,8.528-5.655,5.837-11.509,11.891-19.328,14.4-11.182,3.637-18.473,1.255-24.91-.8-5.928-1.818-11.51-3.637-19.8-.909-7.164,2.364-10.363,7.946-13.728,13.837-4.691,8.2-9.546,16.655-24.983,15.564-23.82-1.727-32.948,5.309-41.512,18.8Zm479.9,66.512c0-.145-1.818-14.692-11.691-19.8-4.619-2.4-9.292-1.164-14.71.273-6.091,1.618-12.982,3.437-21.019.218s-11.709-8.91-14.91-13.91c-2.837-4.437-5.291-8.291-10.418-10.128-4-1.436-9.6.345-15.51,2.218-10.091,3.2-21.528,6.819-28.419-5.037-5.019-8.673-10.273-13.328-16.02-14.183s-12.291,2.146-19.564,8.891l-2.473-2.655c8.236-7.655,15.619-10.91,22.564-9.837s13.019,6.255,18.637,15.964c5.455,9.328,14.546,6.437,24.165,3.382,6.528-2.073,12.728-4.018,17.856-2.164,6.272,2.255,9.31,7,12.255,11.6s6.182,9.655,13.2,12.473,12.928,1.182,18.729-.345,11.437-3.036,17.31,0c11.564,5.982,13.564,21.928,13.637,22.6Zm-11.946,18.183-3.637-.455s.873-7.837-4.528-12.164c-3.49-2.782-8.073-1.618-13.873-.164s-12.855,3.237-20.128.691-10.71-7.273-14.037-11.764-6.146-8.382-12.51-10.255c-4.909-1.436-10.91,1.145-16.746,3.637-8.546,3.637-18.183,7.819-24.128-2.364-8.455-14.546-23.819-18.783-39.147-10.728l-1.691-3.218c17.2-9.091,34.457-4.291,43.984,12.128,4.073,7.037,10.073,4.909,19.546.855,6.4-2.764,13.037-5.6,19.2-3.782,7.545,2.2,11.037,6.964,14.419,11.582,3.127,4.255,6.091,8.291,12.31,10.473s12.237.673,18.037-.782c6.236-1.564,12.146-3.055,17.037.855,7.019,5.637,5.892,15.092,5.892,15.455Z" transform="translate(-589.286 132.304)"/>
            <path id="Path_66" data-name="Path 66" class="cls-37" d="M1188.477,286.236l-31.6,4.618s-43.348,6.309-49.093-29.82,30.674-50.2,6.764-64-21.437-35.347-10.364-58.694l141.08,75.167,22.364,30.911Z" transform="translate(-567.301 398.27)"/>
            <path id="Path_67" data-name="Path 67" class="cls-38" d="M1098.047,173.975c4.6.327,47.147-.127,60.222-.782,2.327-.127,4.691-.473,6.964-.4a179.729,179.729,0,0,0,23.419-.109c4.946.564,24.874-.491,26.328-.509,6.146-.091,4.964-.164,11.092-.309a29.1,29.1,0,0,0,4.237-.418c1.6-.236,2.072-1.418.745-1.818a13.056,13.056,0,0,0-2.981-.673c-1.709-.127-3.491-.127-5.237-.127h-57.148c-7.892,0-15.819,0-23.638.145s-23.637.6-23.637.527c-4.982,0-9.982-.127-14.928,0-4.346.145-8.691.509-12.946.927a3.383,3.383,0,0,0-2.309,1.346c-.31.382,6.982,1.982,9.818,2.2Z" transform="translate(-589.913 486.057)"/>
            <path id="Path_68" data-name="Path 68" class="cls-39" d="M1180.08,233.2c2.963-4.109,27.438-43.911,34.547-56.366,1.254-2.237,2.327-4.618,3.637-6.691a217.7,217.7,0,0,0,13.6-21.819c3.364-4.291,14.127-23.383,14.946-24.747,3.509-5.764,2.745-4.691,6.218-10.473a39.031,39.031,0,0,0,2.127-4.164c.727-1.618,0-2.691-1.127-1.691a15.586,15.586,0,0,0-2.328,2.418c-1.109,1.509-2.146,3.182-3.182,4.8l-33.329,53.166c-4.6,7.273-9.219,14.71-13.728,22.147s-13.328,22.328-13.383,22.31c-2.927,4.618-5.946,9.2-8.728,13.892-2.418,4.127-4.637,8.364-6.764,12.546a3.744,3.744,0,0,0-.219,2.855c.165.255,5.892-5.655,7.71-8.182Z" transform="translate(-348.184 307.647)"/>
            <path id="Path_69" data-name="Path 69" class="cls-40" d="M1022.952,100.03c9.091,5.309,94.223,51.493,120.661,65.24,4.71,2.436,9.6,4.709,14.092,7.273,15.473,8.782,30.91,17.637,46.82,25.547,9.6,5.909,49.93,26.819,52.857,28.383,12.31,6.655,9.964,5.273,22.292,11.892,2.874,1.527,5.855,2.964,8.673,4.273,3.31,1.527,4.836,1.018,2.419-.8a66.111,66.111,0,0,0-5.655-3.873c-3.327-1.982-6.91-3.927-10.4-5.855q-57.056-31.256-114.133-62.494c-15.782-8.637-31.6-17.31-47.457-25.838s-47.584-25.456-47.584-25.456c-9.946-5.455-19.855-11.055-29.838-16.364-8.746-4.637-17.619-9.091-26.328-13.364a12,12,0,0,0-5.237-1.364c-.509.109,13.237,9.51,18.819,12.8Z" transform="translate(-832.034 251.132)"/>
            <path id="Path_70" data-name="Path 70" class="cls-41" d="M1124.058,66.409c1.818,8.364,21.692,84.986,28.311,108.405,1.182,4.182,2.618,8.346,3.637,12.455,3.309,14.183,6.509,28.292,10.818,42.22,1.709,9.091,11.855,44.766,12.546,47.384,2.909,11.055,2.418,8.891,5.455,20,.673,2.564,1.528,5.146,2.346,7.546.964,2.818,2.328,3.382,2.146.909a41.657,41.657,0,0,0-.709-5.564c-.655-3.109-1.473-6.328-2.273-9.491q-13.091-51.493-26.183-103.005c-3.637-14.255-7.273-28.547-11.019-42.766s-11.4-42.566-11.346-42.6c-2.273-8.982-4.437-18.019-6.855-26.929-2.127-7.819-4.473-15.564-6.837-23.128a8.3,8.3,0,0,0-2.346-3.836c-.546-.309,1.2,13.219,2.309,18.4Z" transform="translate(-493.682 138.201)"/>
            <path id="Path_71" data-name="Path 71" class="cls-42" d="M1157.309,66.651c-.2,6,1.509,61.567,2.563,78.622.182,3.037.6,6.128.6,9.091,0,10.219-.182,20.383.8,30.583-.437,6.473,1.2,32.474,1.272,34.384.273,8.019.327,6.473.637,14.546a53.617,53.617,0,0,0,.545,5.455c.291,2.091,1.474,2.673,1.818.945a20.452,20.452,0,0,0,.583-3.909v-6.855q-.836-37.311-1.727-74.549c-.254-10.328-.491-20.656-.854-30.911s-1.291-30.911-1.236-30.911c-.146-6.509-.164-13.037-.455-19.51-.254-5.673-.764-11.346-1.309-16.892a4.76,4.76,0,0,0-1.4-2.982c-.31-.382-1.655,9.164-1.836,12.892Z" transform="translate(-391.054 154.741)"/>
            <path id="Path_72" data-name="Path 72" class="cls-43" d="M1208.17,251.573c5.455-7.909,53.148-83,67.367-106.369,2.527-4.164,4.891-8.51,7.527-12.455,9.091-13.619,18.183-27.11,26.365-41.275,6.073-8.382,27.711-44.02,29.347-46.6,6.855-10.91,5.455-8.8,12.273-19.674,1.582-2.527,3.073-5.182,4.437-7.673,1.6-2.946,1.145-4.418-.709-2.346a51.111,51.111,0,0,0-3.946,4.891c-2.037,2.928-4.055,6.073-6.037,9.091q-32.256,50.275-64.494,100.532c-8.928,13.91-17.874,27.838-26.674,41.82s-26.274,41.984-26.329,41.966c-5.637,8.764-11.382,17.492-16.855,26.292-4.8,7.728-9.4,15.564-13.855,23.292a10.111,10.111,0,0,0-1.491,4.782c.09.527,9.691-11.382,13.073-16.274Z" transform="translate(-282.216 40.914)"/>
            <path id="Path_73" data-name="Path 73" class="cls-44" d="M1054.378,48.586c6.255,9.091,66.967,91.5,86.059,116.515,3.4,4.455,7.037,8.837,10.2,13.292,10.91,15.346,21.619,30.674,33.311,45.457,6.546,9.946,35.675,48.057,37.765,50.912,8.8,11.873,7.164,9.51,15.983,21.365,2.037,2.746,4.255,5.455,6.346,7.982,2.473,2.964,4.091,3.2,2.582.382a70.678,70.678,0,0,0-3.637-6.2c-2.309-3.382-4.836-6.855-7.272-10.255L1154.638,177.12c-11.237-15.346-22.456-30.729-33.783-45.984s-34.075-45.657-34.038-45.711c-7.073-9.691-14.055-19.474-21.219-29.092-6.273-8.364-12.728-16.583-19.11-24.6a12.72,12.72,0,0,0-4.363-3.637c-.619-.236,8.382,14.855,12.254,20.492Z" transform="translate(-722.708 80.875)"/>
            <path id="Path_74" data-name="Path 74" class="cls-45" d="M1132.207.931c.709,7.473,10.674,76.149,14.274,97.187.637,3.746,1.509,7.509,1.946,11.182,1.473,12.728,2.855,25.292,5.345,37.82.546,8.073,6.037,40.129,6.383,42.493,1.473,9.91,1.291,7.964,2.782,17.874.364,2.291.854,4.618,1.364,6.782.6,2.564,1.818,3.164,2.019.982a34.433,34.433,0,0,0,0-4.928c-.254-2.764-.655-5.655-1.037-8.491q-6.4-46.148-12.837-92.277c-1.818-12.728-3.636-25.565-5.455-38.329s-5.873-38.184-5.818-38.184c-1.11-8.037-2.109-16.128-3.364-24.128-1.091-7-2.437-13.983-3.818-20.8a6.6,6.6,0,0,0-1.818-3.527c-.4-.2-.4,11.728.036,16.346Z" transform="translate(-464.23 -44.388)"/>
            <path id="Path_75" data-name="Path 75" class="cls-46" d="M1099.122,97.356c4.182,6.673,45.711,66.567,58.912,84.677,2.346,3.218,4.928,6.346,7.055,9.6,7.273,11.2,14.546,22.419,22.747,33.056,4.327,7.273,24.474,34.874,25.892,36.929,6.037,8.637,4.928,6.891,10.91,15.51,1.4,2,2.964,3.946,4.455,5.746,1.818,2.127,3.164,2.127,2.255,0a35.388,35.388,0,0,0-2.328-4.6c-1.545-2.491-3.273-5-4.964-7.491q-27.637-40.347-55.311-80.695c-7.655-11.182-15.31-22.365-23.074-33.456s-23.4-33.147-23.365-33.183c-4.8-7.055-9.528-14.182-14.546-21.11-4.309-6.073-8.818-12-13.292-17.783a7.269,7.269,0,0,0-3.346-2.491c-.272-.036,5.418,11.164,8,15.292Z" transform="translate(-581.588 236.26)"/>
            <path id="Path_76" data-name="Path 76" class="cls-47" d="M1221.571,28.411c-1.909,8.019-16.365,83-20.183,106.151-.691,4.127-1.163,8.346-2.037,12.328-2.981,13.71-6.055,27.274-8.055,41.257-2.273,8.582-8.182,43.893-8.673,46.457-2.037,10.91-1.546,8.746-3.636,19.583-.455,2.509-.782,5.109-1.055,7.546-.327,2.855.673,3.927,1.564,1.691a41.4,41.4,0,0,0,1.691-5.128c.728-2.982,1.345-6.128,1.964-9.2q9.928-50.293,19.837-100.569c2.728-13.928,5.455-27.856,8.091-41.82s7.673-41.82,7.746-41.82c1.818-8.764,3.637-17.546,5.182-26.31,1.382-7.673,2.527-15.4,3.637-22.965a8.023,8.023,0,0,0-.509-4.327c-.237-.327-4.382,12.164-5.564,17.128Z" transform="translate(-331.818 32.465)"/>
            <path id="Path_77" data-name="Path 77" class="cls-34" d="M1145.857,204.631a3.908,3.908,0,0,0-2.709-1,3.819,3.819,0,0,0-2.637,1.218c-24.419,26.51-33.62,48.021-34,48.912a3.781,3.781,0,0,0,2.018,4.964,4.077,4.077,0,0,0,1.455.291,3.728,3.728,0,0,0,3.492-2.364c.091-.2,8.982-21.055,32.6-46.711a3.783,3.783,0,0,0-.219-5.346Zm74.386-54.93a3.765,3.765,0,0,0-5.11-1.582,290.172,290.172,0,0,0-32.02,19.547,3.782,3.782,0,0,0,4.127,6.328l.237-.145a287.664,287.664,0,0,1,31.166-19.038,3.635,3.635,0,0,0,1.817-2.2,3.785,3.785,0,0,0-.218-2.909Zm109.441-30.638c-.909,0-22.656-1.818-55.6,6.4a3.782,3.782,0,0,0,.927,7.437,4,4,0,0,0,.909-.109c31.765-7.928,52.894-6.219,53.111-6.2a3.636,3.636,0,0,0,2.273-.527,3.777,3.777,0,0,0-1.617-7Z" transform="translate(-538.119 342.287)"/>
            <path id="Path_78" data-name="Path 78" class="cls-29" d="M1083.726,393.381a6.146,6.146,0,0,0-7.273,4.8c-5.8,28.583-5.745,46.948-5.728,47.711a6.1,6.1,0,1,0,12.2-.091c0-.164,0-17.892,5.455-45.184a6.146,6.146,0,0,0-4.654-7.237Zm102.241-182.118a6,6,0,0,0-4.346-1.818,6.126,6.126,0,0,0-4.327,1.818,380.981,380.981,0,0,0-47.82,58.876,6.145,6.145,0,0,0,10.237,6.8,367.171,367.171,0,0,1,46.275-56.985,6.126,6.126,0,0,0,0-8.673ZM1389.5,101.985a6.11,6.11,0,0,0-7.273-4.637,399.725,399.725,0,0,0-80.549,27.51,6.109,6.109,0,0,0-2.964,8.128,6.1,6.1,0,0,0,8.128,2.982,387.293,387.293,0,0,1,78.058-26.711,6.562,6.562,0,0,0,1.818-.727,6.109,6.109,0,0,0,2.781-6.546Zm221.356,17.928c-.891-.473-22.564-11.982-59.348-21.056a6.132,6.132,0,1,0-2.928,11.91c34.747,8.564,55.621,19.492,56.494,20a5.984,5.984,0,0,0,2.891.727,6.146,6.146,0,0,0,3.164-.873,5.945,5.945,0,0,0,2.237-2.364,6.127,6.127,0,0,0-2.509-8.346Z" transform="translate(-640.286 279.852)"/>
            <path id="Path_79" data-name="Path 79" class="cls-17" d="M1248.94,414.825a6.854,6.854,0,0,0-12.509-1.946,576.122,576.122,0,0,0-54.239,117.406,6.819,6.819,0,0,0,4.363,8.637,6.613,6.613,0,0,0,2.146.345,6.829,6.829,0,0,0,6.491-4.709,561.867,561.867,0,0,1,52.949-114.551A6.783,6.783,0,0,0,1248.94,414.825Zm284.869-218.083a6.837,6.837,0,0,0-8.4-4.837,476.394,476.394,0,0,0-122.024,51.857,6.871,6.871,0,1,0,7.074,11.782,463.238,463.238,0,0,1,118.515-50.366,6.818,6.818,0,0,0,4.837-8.382ZM1022.02,589.325a7.527,7.527,0,0,0-8.982,5.8c-9.328,43.439-13.437,84.168-12.255,121.1a7.564,7.564,0,0,0,7.563,7.273h.237a7.435,7.435,0,0,0,3.636-1.073,7.563,7.563,0,0,0,3.637-6.728c-1.145-35.693,2.855-75.2,11.91-117.424a7.583,7.583,0,0,0-5.746-8.946Zm176.463-343.817a7.582,7.582,0,0,0-10.673.782,781.978,781.978,0,0,0-70.094,95.368,7.564,7.564,0,0,0,10.346,10.492,7.464,7.464,0,0,0,2.491-2.455,763.889,763.889,0,0,1,68.64-93.514,7.564,7.564,0,0,0-.782-10.673Zm142.552-119.7a7.582,7.582,0,0,0-10.382-2.582,556.608,556.608,0,0,0-87.6,66,7.573,7.573,0,0,0,9.019,12.073,8.192,8.192,0,0,0,1.2-.891,541.327,541.327,0,0,1,85.2-64.2,7.564,7.564,0,0,0,2.563-10.382Zm671.542-13.546a7.548,7.548,0,0,0-3.636-4.582,471.376,471.376,0,0,0-80.768-35.638,7.546,7.546,0,0,0-9.219,10.491,7.437,7.437,0,0,0,4.346,3.818,456.068,456.068,0,0,1,78.185,34.547,7.638,7.638,0,0,0,3.746.982,7.509,7.509,0,0,0,3.909-1.091,7.394,7.394,0,0,0,2.672-2.727,7.474,7.474,0,0,0,.763-5.8ZM1816.223,43.134a7.471,7.471,0,0,0-4.946-3.018,837.335,837.335,0,0,0-127.9-9.51,7.573,7.573,0,0,0,.018,15.146h1.819a815.7,815.7,0,0,1,123.643,9.328,8.117,8.117,0,0,0,1.145,0,7.656,7.656,0,0,0,3.928-1.091,7.563,7.563,0,0,0,3.636-5.328,7.455,7.455,0,0,0-1.346-5.527Z" transform="translate(-842.212 88.108)"/>
            <path id="Path_80" data-name="Path 80" class="cls-48" d="M1197.048,59.556c2.545-17.637,46.147-30.438,72.822,2.582s34.965,46.657,69.767,42.966c41.82-4.455,48.438,28.674,41.457,43.22l-36.165,49.639a198.341,198.341,0,0,0-67.458-35.129c-45.348-13-98.423-14.4-98.423-14.4Z" transform="translate(-328.423 119.944)"/>
            <path id="Path_81" data-name="Path 81" class="cls-17" d="M1264.324,81.016c-1.127-.327-27.91-8.091-70.913-12.637a6.837,6.837,0,0,0-7.546,6.073,6.909,6.909,0,0,0,1.492,5.037,6.744,6.744,0,0,0,4.6,2.491c41.821,4.455,68.24,12.091,68.513,12.182a6.855,6.855,0,0,0,3.854-13.146Z" transform="translate(-308.896 196.743)"/>
            <path id="Path_82" data-name="Path 82" class="cls-30" d="M1218.179,97.3l-1.037-3.491,23-6.746-6.764-23,3.491-1.018,7.782,26.474L1218.178,97.3Z" transform="translate(-218.749 181.51)"/>
            <path id="Path_83" data-name="Path 83" class="cls-9" d="M1154.36,180.642a5.209,5.209,0,1,0,1.854,3.509,5.184,5.184,0,0,0-1.854-3.509Zm-35.365-10a3.055,3.055,0,1,0-1.946,5.455h.291a3,3,0,0,0,2.073-1.091,3.11,3.11,0,0,0,.69-2.237,3.018,3.018,0,0,0-1.109-2.127Z" transform="translate(-515.547 489.391)"/>
            <path id="Path_84" data-name="Path 84" class="cls-49" d="M1016.871,144.554c8.564,2.273,88.6,20,113.315,24.892,4.4.891,8.927,1.546,13.165,2.582,14.637,3.637,29.092,7.273,44.02,9.891,9.092,2.655,46.857,10.128,49.6,10.728,11.564,2.527,9.346,1.946,20.91,4.437,2.673.582,5.455,1.018,8.055,1.4,3.055.436,4.2-.509,1.818-1.491a46.339,46.339,0,0,0-5.455-1.927c-3.165-.855-6.528-1.618-9.819-2.364L1145.2,168.391c-14.855-3.364-29.729-6.728-44.62-9.964s-44.657-9.528-44.657-9.582c-9.364-2.127-18.728-4.382-28.074-6.364-8.2-1.709-16.455-3.2-24.547-4.6a8.8,8.8,0,0,0-4.618.309c-.418.255,12.892,4.946,18.183,6.364Z" transform="translate(-847.7 396.454)"/>
            <path id="Path_85" data-name="Path 85" class="cls-50" d="M1290.624,147.267c-32.166,19.11-62.676,36.875-91.532,52.73q-34.312,18.819-66.531,35.147l11.237-7.073,106.278-61.821Z" transform="translate(-462.256 423.979)"/>
            <path id="Path_86" data-name="Path 86" class="cls-14" d="M1280.663,179.6c-6.255-13.073-12.728-26.092-18.928-38.82a38.7,38.7,0,0,0-4-6.619c0-.109-.127-.182-.183-.291l.146.127c.218.182.309.109.2-.309a3.838,3.838,0,0,0-1.382-1.982,5.891,5.891,0,0,0-5.146-1.146,7.535,7.535,0,0,0-1.382.545l-1.145.618L1246.516,133c-4.964,2.764-10.128,5.746-15.183,8.655l-82.458,47.62-20.619,11.91-2.582,1.491-1.291.746-.636.364c-.236.145-.527.327-.764.509a6.454,6.454,0,0,0-2.364,6.673,8.122,8.122,0,0,0,1.582,3.073l1.691,2.437,3.4,4.891,27.22,39.129q8.873,12.728,17.746,25.583l43.839-25.456,68.24-39.766,12.527-7.273c-5.473-11.255-10.855-22.656-16.2-33.983Z" transform="translate(-497.17 375.374)"/>
            <path id="Path_87" data-name="Path 87" class="cls-51" d="M1861.578,8.825l-120.661,624.5-105.878,61.33L962.625,543.106C1074.14,116.394,1548.49-84.925,1861.578,8.825Z" transform="translate(-951.498 -39.736)"/>
            <path id="Path_88" data-name="Path 88" class="cls-34" d="M1170.312,269.642l-45.784-66.149a2.8,2.8,0,0,1,.891-4.018l112.733-65.294a2.8,2.8,0,0,1,3.946,1.236l34.074,72.895Z" transform="translate(-486.824 385.209)"/>
            <path id="Path_89" data-name="Path 89" class="cls-52" d="M1170.312,269.642l-45.784-66.149a2.8,2.8,0,0,1,.891-4.018l112.733-65.294a2.8,2.8,0,0,1,3.946,1.236l34.074,72.895Z" transform="translate(-486.824 385.209)"/>
            <path id="Path_90" data-name="Path 90" class="cls-9" d="M1148.453,151.755,1128.6,163.247a.6.6,0,0,1-.6-1.018l19.855-11.492a.581.581,0,0,1,.8.2.6.6,0,0,1-.2.818Z" transform="translate(-476.002 433.728)"/>
            <path id="Path_91" data-name="Path 91" class="cls-9" d="M1145.692,182.668c-.709.345-4.237,2.364-8.073,4.6l-5.655,3.328c-1.636.945-3.636,2.291-3.127,1.909l.509-.327a11.939,11.939,0,0,1,1.018-.636,70.372,70.372,0,0,0,7-4.019c1.564-.709,7.383-4.382,7.819-4.636l3.272-1.964a.346.346,0,0,1,.6.2,3.817,3.817,0,0,1,0,.473c0,.109.146.236.436,0a.963.963,0,0,0-.291-1.527,1.092,1.092,0,0,0-.836,0c-.327.127-.327.164-.509.236l-.782.455-17.128,9.764-1.818,1.073a1.328,1.328,0,0,0-.164,1.982,1.312,1.312,0,0,0,1.037.382,1.131,1.131,0,0,0,.545-.164l.236-.127,3.527-2.055,7.037-4.182c1.491-.855,3-1.673,4.473-2.564s2.527-1.618,3.746-2.455a1.237,1.237,0,0,0,.491-.746,17.009,17.009,0,0,0-3.364,1Zm72.6-41.22L1198.44,152.94a.6.6,0,1,1-.6-1.018l19.855-11.51a.6.6,0,0,1,.6,1.037Z" transform="translate(-476.551 404.033)"/>
            <path id="Path_92" data-name="Path 92" class="cls-9" d="M1163.557,142.92c-.708.345-4.236,2.364-8.073,4.6l-5.655,3.327c-1.636.945-3.637,2.291-3.127,1.909l.509-.346a11.755,11.755,0,0,1,1.018-.618,70.337,70.337,0,0,0,7-4.018c1.564-.709,7.382-4.382,7.819-4.637l3.273-1.982a.345.345,0,0,1,.6.218v.455c0,.127.146.236.436,0a.981.981,0,0,0-.291-1.546,1.183,1.183,0,0,0-.836,0c-.327.145-.327.164-.509.255l-.782.455-17.128,9.764-1.818,1.055a1.346,1.346,0,0,0-.164,2,1.309,1.309,0,0,0,1.036.382,1.364,1.364,0,0,0,.546-.164l.236-.127,3.527-2.055,7.037-4.2c1.491-.836,3-1.655,4.473-2.545s2.527-1.618,3.746-2.455a1.236,1.236,0,0,0,.491-.745,17.007,17.007,0,0,0-3.364,1.018Z" transform="translate(-425.121 403.652)"/>
            <circle id="Ellipse_9" data-name="Ellipse 9" class="cls-9" cx="1.582" cy="1.582" r="1.582" transform="translate(677.069 579.701)"/>
            <path id="Path_93" data-name="Path 93" class="cls-9" d="M1137.325,163.06a1.091,1.091,0,0,1-.509.837,1.055,1.055,0,0,1-1.219-.182.29.29,0,0,1-.236-.255,4.766,4.766,0,0,1,.254-1.036c.127,0,.327-.218.582-.309a1.438,1.438,0,0,1,.582-.091,1.289,1.289,0,0,1,.527.255.718.718,0,0,0,.236.109.546.546,0,0,0,.492-.255.511.511,0,0,0,0-.327,1.055,1.055,0,0,0-.309-.382,2.218,2.218,0,0,0-2.582-.127,2.255,2.255,0,0,0-.946,2.473,2.219,2.219,0,0,0,3.746.946,2,2,0,0,0,.673-1.255,1.583,1.583,0,0,0-.4-1.127.472.472,0,0,0-.436,0,6.336,6.336,0,0,1-.455.727Zm29.293-16.728-9.091,5.273a.587.587,0,1,1-.583-1.018l9.091-5.273a.587.587,0,1,1,.583,1.018Z" transform="translate(-457.765 418.132)"/>
            <path id="Path_94" data-name="Path 94" class="cls-9" d="M1158.661,147.051c-.364.145-2.127,1.146-4.037,2.273L1151.806,151l-.619.4s-.146,0-.127.109l.236-.2a2.916,2.916,0,0,1,.51-.309,17.994,17.994,0,0,0,3.491-2.018,32.488,32.488,0,0,0,3.891-2.346l.818-.509c.146-.091.182-.145.382,0a.4.4,0,0,1,0,.345c0,.146,0,.582.328.473a.837.837,0,0,0,.509-.727,1.127,1.127,0,0,0-1.127-1.127,1.259,1.259,0,0,0-.583.145l-.272.164-.545.291-1.073.618-2.146,1.2-4.292,2.418-.909.527a1.31,1.31,0,0,0-.272,1.982,1.42,1.42,0,0,0,1.019.437,1.164,1.164,0,0,0,.545-.146l.273-.145.873-.527,3.473-2.127c.763-.418,1.527-.8,2.254-1.255a19.286,19.286,0,0,0,1.818-1.345.6.6,0,0,0,.146-.545,5.016,5.016,0,0,0-1.746.273Zm-12.419,8-9.091,5.273a.6.6,0,0,1-.818-.218.581.581,0,0,1,.218-.8l9.092-5.273a.6.6,0,0,1,.6,1.018Z" transform="translate(-451.627 417.704)"/>
            <path id="Path_95" data-name="Path 95" class="cls-9" d="M1144.959,149.148c-.382.164-2.146,1.164-4.055,2.291l-2.8,1.673-.637.382a.106.106,0,0,0-.109.127l.254-.182a2.288,2.288,0,0,1,.491-.327,17.657,17.657,0,0,0,3.509-2,35.046,35.046,0,0,0,3.891-2.346l.8-.509c.145-.091.2-.145.381,0a.4.4,0,0,1,.109.345c0,.146,0,.564.328.473a.817.817,0,0,0,.491-.727,1.108,1.108,0,0,0-1.127-1.127,1.312,1.312,0,0,0-.583.145l-.272.164-.527.291-1.073.6-2.146,1.218-4.292,2.418-.927.509a1.327,1.327,0,0,0-.272,1.982,1.362,1.362,0,0,0,1.019.454,1.343,1.343,0,0,0,.545-.145l.272-.146.873-.527,3.491-2.127c.745-.418,1.527-.818,2.236-1.273a18.55,18.55,0,0,0,1.818-1.327.656.656,0,0,0,.146-.545,5.271,5.271,0,0,0-1.836.236Z" transform="translate(-452.162 423.844)"/>
            <circle id="Ellipse_10" data-name="Ellipse 10" class="cls-9" cx="1.582" cy="1.582" r="1.582" transform="translate(713.507 558.591)"/>
            <path id="Path_96" data-name="Path 96" class="cls-9" d="M1146.721,145.888a1.236,1.236,0,0,1-.509.855,1.091,1.091,0,0,1-1.236-.2s-.219-.127-.219-.236a6.856,6.856,0,0,1,.236-1.055,4.805,4.805,0,0,0,.6-.309,1,1,0,0,1,.564,0,1.273,1.273,0,0,1,.527.236.735.735,0,0,0,.236.127.621.621,0,0,0,.509-.255.575.575,0,0,0,0-.345,1.318,1.318,0,0,0-.328-.382,2.22,2.22,0,0,0-3.509,2.346,2.163,2.163,0,0,0,1.6,1.6,2.218,2.218,0,0,0,1.437-.145,2.11,2.11,0,0,0,.691-.509,1.817,1.817,0,0,0,.673-1.255,1.563,1.563,0,0,0-.4-1.127h-.437a5.865,5.865,0,0,1-.437.654Z" transform="translate(-430.723 414.139)"/>
            <path id="Path_97" data-name="Path 97" class="cls-10" d="M1202.363,147c-2.109,1.236-2.2-5.073-7.109-2.236,4.909-2.836-.51-6.055,1.6-7.273m-53.275,100.423c2.127-1.218-3.31-4.437,1.6-7.273-4.909,2.836-4.982-3.455-7.109-2.237" transform="translate(-446.399 395.841)"/>
            <path id="Path_98" data-name="Path 98" class="cls-9" d="M1160.975,149.432l-19.855,11.491a.586.586,0,1,1-.582-1.018l19.836-11.492a.6.6,0,0,1,.818.218.582.582,0,0,1-.218.8Z" transform="translate(-440.141 427.05)"/>
            <path id="Path_99" data-name="Path 99" class="cls-9" d="M1167.969,150.971c-.708.345-4.236,2.364-8.055,4.6l-5.655,3.327c-1.654.945-3.636,2.291-3.146,1.818l.491-.327a10.1,10.1,0,0,1,1.019-.618,72.063,72.063,0,0,0,7-4.036c1.583-.691,7.4-4.382,7.819-4.637l3.291-1.964c.272-.236.545-.109.582.2a3.637,3.637,0,0,1,0,.473c0,.109.164.236.437,0a.963.963,0,0,0-.273-1.527,1.107,1.107,0,0,0-.835,0,3.663,3.663,0,0,0-.509.237l-.8.454-17.109,9.764-1.818,1.073a1.309,1.309,0,0,0,.873,2.364,1,1,0,0,0,.546-.164l.218-.127,3.546-2.055,7.018-4.182c1.491-.855,3.018-1.673,4.473-2.564s2.527-1.618,3.746-2.455a1.165,1.165,0,0,0,.491-.745,17.415,17.415,0,0,0-3.346,1.091Zm-10.6,25.856-19.837,11.51a.6.6,0,0,1-.6-1.036l19.855-11.492a.586.586,0,0,1,.582,1.018Z" transform="translate(-450.444 426.658)"/>
            <path id="Path_100" data-name="Path 100" class="cls-9" d="M1160.186,163.478c-.709.345-4.255,2.382-8.073,4.618l-5.655,3.327c-1.636.945-3.636,2.273-3.127,1.818l.51-.345a11.83,11.83,0,0,1,1.018-.618,74.2,74.2,0,0,0,7-4.036c1.563-.691,7.382-4.364,7.819-4.619l3.272-1.982a.345.345,0,0,1,.6.2v.473c0,.127.146.236.436,0a.981.981,0,0,0-.291-1.546,1.109,1.109,0,0,0-.836,0,3.23,3.23,0,0,0-.509.255l-.782.436-17.128,9.782-1.818,1.055a1.319,1.319,0,0,0,1.419,2.218l.236-.127,3.527-2.073,7.037-4.182c1.491-.855,3-1.673,4.473-2.564s2.527-1.6,3.746-2.436a1.381,1.381,0,0,0,.491-.746,15.455,15.455,0,0,0-3.364,1.091Zm-15.656-9.11-9.091,5.273a.6.6,0,0,1-.817-.218.581.581,0,0,1,.218-.8l9.091-5.291a.6.6,0,1,1,.6,1.036Z" transform="translate(-456.552 441.151)"/>
            <path id="Path_101" data-name="Path 101" class="cls-9" d="M1143.248,178.3c-.382.164-2.146,1.164-4.055,2.273l-2.8,1.691-.637.382a.106.106,0,0,0-.109.127l.255-.182a3.735,3.735,0,0,1,.491-.327,17.661,17.661,0,0,0,3.509-2,35.18,35.18,0,0,0,3.891-2.346l.8-.509c.146-.091.2-.145.381,0a.4.4,0,0,1,.109.346c0,.145,0,.564.327.473a.817.817,0,0,0,.491-.727,1.109,1.109,0,0,0-1.127-1.127,1.309,1.309,0,0,0-.583.145l-.272.164-.528.291-1.073.6-2.146,1.218-4.292,2.418-.927.509a1.327,1.327,0,0,0-.272,1.982,1.364,1.364,0,0,0,1.019.455,1.342,1.342,0,0,0,.545-.145l.272-.145.873-.527,3.491-2.127c.745-.418,1.527-.818,2.236-1.273a18.608,18.608,0,0,0,1.818-1.327.654.654,0,0,0,.146-.545,5.325,5.325,0,0,0-1.836.236Zm56.8-32.129-9.091,5.291a.6.6,0,0,1-.6-1.036l9.091-5.273a.6.6,0,1,1,.6,1.018Z" transform="translate(-457.087 417.489)"/>
            <path id="Path_102" data-name="Path 102" class="cls-9" d="M1157.423,146.816c-.381.145-2.146,1.146-4.055,2.273l-2.8,1.691-.636.382a.106.106,0,0,0-.109.127l.254-.182a2.551,2.551,0,0,1,.491-.327,19.045,19.045,0,0,0,3.509-2,34.839,34.839,0,0,0,3.891-2.364l.8-.491c.146-.109.2-.164.382,0a.418.418,0,0,1,.109.345c0,.145,0,.582.327.473a.8.8,0,0,0,.491-.727,1.127,1.127,0,0,0-1.708-.964l-.273.145-.527.309-1.073.6-2.146,1.2-4.292,2.418-.928.527a1.328,1.328,0,0,0-.272,1.982,1.291,1.291,0,0,0,1.018.436,1.333,1.333,0,0,0,.546-.127l.272-.164.873-.509,3.491-2.146c.746-.418,1.528-.8,2.236-1.255a18.778,18.778,0,0,0,1.818-1.346.618.618,0,0,0,.146-.527,4.911,4.911,0,0,0-1.836.218Z" transform="translate(-416.278 417.138)"/>
            <circle id="Ellipse_11" data-name="Ellipse 11" class="cls-9" cx="1.582" cy="1.582" r="1.582" transform="translate(725.472 570.628)"/>
            <path id="Path_103" data-name="Path 103" class="cls-9" d="M1154.016,149.065a1.165,1.165,0,0,1-.528.836,1.037,1.037,0,0,1-1.218-.182.311.311,0,0,1-.236-.255,5.047,5.047,0,0,1,.254-1.036c.146,0,.327-.218.582-.309a1.438,1.438,0,0,1,.583-.091,1.18,1.18,0,0,1,.526.255.708.708,0,0,0,.236.109.546.546,0,0,0,.491-.255.345.345,0,0,0,0-.327.907.907,0,0,0-.309-.382,2.181,2.181,0,0,0-2.563-.127,2.221,2.221,0,1,0,2.781,3.418,1.909,1.909,0,0,0,.674-1.255,1.544,1.544,0,0,0-.4-1.128h-.437a7.66,7.66,0,0,1-.436.727Zm1.091,18.565-9.091,5.273a.582.582,0,0,1-.8-.218.6.6,0,0,1,.219-.818l9.091-5.273a.618.618,0,0,1,.818.218.6.6,0,0,1-.236.818Z" transform="translate(-426.053 423.053)"/>
            <path id="Path_104" data-name="Path 104" class="cls-9" d="M1153.844,153.774c-.363.145-2.127,1.164-4.036,2.273l-2.819,1.691-.618.382s-.146,0-.127.127l.236-.182a3.022,3.022,0,0,1,.509-.327,17.01,17.01,0,0,0,3.491-2,34.985,34.985,0,0,0,3.891-2.346l.818-.509c.146-.091.182-.146.382,0a.4.4,0,0,1,.091.345c0,.146,0,.564.327.473a.837.837,0,0,0,.509-.727,1.127,1.127,0,0,0-1.127-1.127,1.256,1.256,0,0,0-.583.145l-.272.146-.545.309-1.073.6-2.146,1.2-4.292,2.418-.909.527a1.31,1.31,0,0,0-.272,1.982,1.292,1.292,0,0,0,1.018.436,1.146,1.146,0,0,0,.545-.127l.273-.145.873-.527,3.473-2.127c.764-.418,1.528-.818,2.255-1.273a16.382,16.382,0,0,0,1.818-1.327.6.6,0,0,0,.146-.546,4.908,4.908,0,0,0-1.836.236Z" transform="translate(-426.609 437.164)"/>
            <circle id="Ellipse_12" data-name="Ellipse 12" class="cls-9" cx="1.582" cy="1.582" r="1.582" transform="translate(692.597 589.647)"/>
            <path id="Path_105" data-name="Path 105" class="cls-9" d="M1141.393,153.918a1,1,0,0,1-1.818.655s-.236-.145-.236-.255a4.768,4.768,0,0,1,.255-1.036c.127,0,.327-.218.582-.327a1.309,1.309,0,0,1,.582,0,1.3,1.3,0,0,1,.527.255l.236.109a.547.547,0,0,0,.491-.255.568.568,0,0,0,0-.346.847.847,0,0,0-.31-.364,2.218,2.218,0,0,0-2.582-.127,2.255,2.255,0,0,0-.945,2.455,2.219,2.219,0,0,0,1.618,1.618,2.307,2.307,0,0,0,2.126-.654,2,2,0,0,0,.673-1.255,1.579,1.579,0,0,0-.4-1.146.545.545,0,0,0-.436,0,7.589,7.589,0,0,1-.364.673Z" transform="translate(-446.304 437.238)"/>
            <circle id="Ellipse_13" data-name="Ellipse 13" class="cls-9" cx="1.582" cy="1.582" r="1.582" transform="translate(711.562 597.629)"/>
            <path id="Path_106" data-name="Path 106" class="cls-9" d="M1146.215,171.091a1.164,1.164,0,0,1-.509.855,1.091,1.091,0,0,1-1.236-.2s-.218-.127-.218-.236a5.19,5.19,0,0,1,.254-1.055c.127,0,.327-.218.582-.309a1.074,1.074,0,0,1,.582,0,1.09,1.09,0,0,1,.509.237.845.845,0,0,0,.254.127c.092,0,.437-.109.492-.273a.514.514,0,0,0,0-.327,1.324,1.324,0,0,0-.327-.382,2.218,2.218,0,0,0-2.563-.127,2.273,2.273,0,0,0-.946,2.473,2.164,2.164,0,0,0,1.6,1.6,2.219,2.219,0,0,0,1.437-.145,2.074,2.074,0,0,0,.708-.509,1.93,1.93,0,0,0,.655-1.255,1.494,1.494,0,0,0-.4-1.127h-.418c-.127,0-.363.582-.455.655Zm37.129-21.256-9.091,5.273a.6.6,0,1,1-.6-1.018l9.091-5.273a.6.6,0,1,1,.6,1.018Z" transform="translate(-432.162 428.029)"/>
            <path id="Path_107" data-name="Path 107" class="cls-9" d="M1159.555,150.493c-.364.164-2.146,1.164-4.055,2.291l-2.8,1.673-.636.382a.106.106,0,0,0-.109.127l.236-.182a3.821,3.821,0,0,1,.491-.327,17.167,17.167,0,0,0,3.509-2,35.138,35.138,0,0,0,3.891-2.346l.818-.509c.128-.091.183-.146.364,0a.346.346,0,0,1,.109.345c0,.146,0,.564.327.473a.8.8,0,0,0,.492-.727,1.109,1.109,0,0,0-1.11-1.127,1.328,1.328,0,0,0-.6.145l-.272.164-.527.291-1.073.6-2.146,1.218-4.292,2.418-.927.509a1.328,1.328,0,0,0-.272,1.982,1.364,1.364,0,0,0,1.018.454,1.526,1.526,0,0,0,.563-.145l.255-.145.891-.527,3.473-2.127c.746-.418,1.528-.8,2.255-1.273a20.733,20.733,0,0,0,1.818-1.327.652.652,0,0,0,.146-.546,5.329,5.329,0,0,0-1.837.236Z" transform="translate(-410.191 427.717)"/>
            <circle id="Ellipse_14" data-name="Ellipse 14" class="cls-9" cx="1.582" cy="1.582" r="1.582" transform="translate(733.69 584.81)"/>
            <path id="Path_108" data-name="Path 108" class="cls-9" d="M1151.913,152.672a1.253,1.253,0,0,1-.509.836,1.091,1.091,0,0,1-1.236-.2.311.311,0,0,1-.236-.236,6.151,6.151,0,0,1,.254-1.036c.145,0,.327-.218.6-.327a1,1,0,0,1,.564,0,1.181,1.181,0,0,1,.527.255l.237.109a.564.564,0,0,0,.509-.255.451.451,0,0,0,0-.345,1.011,1.011,0,0,0-.309-.382,2.218,2.218,0,0,0-2.563-.109,2.255,2.255,0,0,0,.655,4.073,2.364,2.364,0,0,0,1.437-.164,2.255,2.255,0,0,0,.691-.491,1.965,1.965,0,0,0,.673-1.255,1.581,1.581,0,0,0-.4-1.146h-.436a6.111,6.111,0,0,1-.455.673Z" transform="translate(-415.732 433.647)"/>
          </g>
        </g>
      </g>
    </g>
  </g>
</svg>
